# xmcd
#
# Track frame offsets: 
#        150
#        14107
#        27465
#        40500
#        54242
#        68425
#        80525
#        94050
#        112047
#        129240
#
# Disc length: 1933 seconds
#
# Revision: 3
# Processed by: cddbd v1.5.1PL0 Copyright (c) Steve Scherf et al.
# Submitted via: ExactAudioCopy v0.95a3
#
DISCID=78078b0a
DTITLE=Mac Davis - Greatest Hits
DYEAR=1979
DGENRE=Country
TTITLE0=Baby Don't Get Hooked On Me
TTITLE1=Stop And Smell The Roses
TTITLE2=One Hell Of A Woman
TTITLE3=Burnin' Thing
TTITLE4=Watchin' Scotty Grow
TTITLE5=In The Ghetto
TTITLE6=Friend, Lover, Woman, Wife
TTITLE7=Something's Burning
TTITLE8=Memories
TTITLE9=I Believe In Music
EXTD=
EXTT0=
EXTT1=
EXTT2=
EXTT3=
EXTT4=
EXTT5=
EXTT6=
EXTT7=
EXTT8=
EXTT9=
PLAYORDER=
